<?xml version="1.0" encoding="UTF-8" standalone="no"?>
<svg
   xmlns:dc="http://purl.org/dc/elements/1.1/"
   xmlns:cc="http://creativecommons.org/ns#"
   xmlns:rdf="http://www.w3.org/1999/02/22-rdf-syntax-ns#"
   xmlns:svg="http://www.w3.org/2000/svg"
   xmlns="http://www.w3.org/2000/svg"
   xmlns:sodipodi="http://sodipodi.sourceforge.net/DTD/sodipodi-0.dtd"
   xmlns:inkscape="http://www.inkscape.org/namespaces/inkscape"
   version="1.1"
   x="0px"
   y="0px"
   width="75px"
   height="75px"
   viewBox="0 0 100 100"
   enable-background="new 0 0 100 100"
   xml:space="preserve"
   id="svg2"
   inkscape:version="0.91 r13725"
   sodipodi:docname="logo_blank.svg"
   inkscape:export-filename="C:\Users\jimzo\Desktop\bitmap.png"
   inkscape:export-xdpi="162"
   inkscape:export-ydpi="162"><metadata
     id="metadata16"><rdf:RDF><cc:Work
         rdf:about=""><dc:format>image/svg+xml</dc:format><dc:type
           rdf:resource="http://purl.org/dc/dcmitype/StillImage" /><dc:title></dc:title></cc:Work></rdf:RDF></metadata><defs
     id="defs14" /><sodipodi:namedview
     pagecolor="#13242e"
     bordercolor="#666666"
     borderopacity="1"
     objecttolerance="10"
     gridtolerance="10"
     guidetolerance="10"
     inkscape:pageopacity="1"
     inkscape:pageshadow="2"
     inkscape:window-width="1600"
     inkscape:window-height="837"
     id="namedview12"
     showgrid="false"
     inkscape:zoom="3.1466667"
     inkscape:cx="44.654356"
     inkscape:cy="1.7437871"
     inkscape:window-x="-8"
     inkscape:window-y="-8"
     inkscape:window-maximized="1"
     inkscape:current-layer="svg2" /><path
     fill="#FAFAFA"
     d="M45.596,29.179c0,5.636-4.566,10.207-10.207,10.207c-5.636,0-10.207-4.571-10.207-10.207 c0-5.64,4.571-10.211,10.207-10.211C41.029,18.968,45.596,23.539,45.596,29.179z"
     id="path4" /><path
     fill="#FAFAFA"
     d="M27.706,14.613c-8.487,3.439-15.827,23.625,7.111,27.069c22.938,3.44,29.361,25.461,29.361,25.461 S46.516,49.481,24.262,51.545C2.012,53.609,11.879,14.841,27.706,14.613z"
     id="path6" /><path
     fill="#EF5350"
     d="M63.084,45.847c-3.506,4.421-2.76,10.841,1.658,14.342c4.422,3.502,10.841,2.756,14.343-1.661 c3.502-4.418,2.756-10.841-1.662-14.339C73.005,40.684,66.582,41.43,63.084,45.847z"
     id="path8" /><path
     fill="#EF5350"
     d="M86.15,45.544c4.518,7.969-2.263,28.35-22.382,16.796c-20.12-11.546-38.827,1.724-38.827,1.724 S49.757,61.188,65.91,76.63C82.072,92.066,98.417,55.553,86.15,45.544z"
     id="path10" /></svg>