<?xml version="1.0" encoding="UTF-8" standalone="no"?>
<svg
   xmlns:dc="http://purl.org/dc/elements/1.1/"
   xmlns:cc="http://creativecommons.org/ns#"
   xmlns:rdf="http://www.w3.org/1999/02/22-rdf-syntax-ns#"
   xmlns:svg="http://www.w3.org/2000/svg"
   xmlns="http://www.w3.org/2000/svg"
   xmlns:sodipodi="http://sodipodi.sourceforge.net/DTD/sodipodi-0.dtd"
   xmlns:inkscape="http://www.inkscape.org/namespaces/inkscape"
   version="1.0"
   width="2cm"
   height="2cm"
   viewBox="0 0 56.692913 56.692914"
   preserveAspectRatio="xMidYMid meet"
   id="svg10"
   sodipodi:docname="machinima_intro.svg"
   inkscape:version="1.0.1 (3bc2e813f5, 2020-09-07)">
  <defs
     id="defs14" />
  <sodipodi:namedview
     pagecolor="#ffffff"
     bordercolor="#666666"
     borderopacity="1"
     objecttolerance="10"
     gridtolerance="10"
     guidetolerance="10"
     inkscape:pageopacity="0"
     inkscape:pageshadow="2"
     inkscape:window-width="1920"
     inkscape:window-height="1017"
     id="namedview12"
     showgrid="false"
     inkscape:zoom="5.0746269"
     inkscape:cx="14.878503"
     inkscape:cy="49.189648"
     inkscape:window-x="-8"
     inkscape:window-y="418"
     inkscape:window-maximized="1"
     inkscape:current-layer="svg10"
     inkscape:pagecheckerboard="true"
     inkscape:document-rotation="0"
     units="cm" />
  <metadata
     id="metadata2">
Created by potrace 1.15, written by Peter Selinger 2001-2017
<rdf:RDF>
  <cc:Work
     rdf:about="">
    <dc:format>image/svg+xml</dc:format>
    <dc:type
       rdf:resource="http://purl.org/dc/dcmitype/StillImage" />
    <dc:title />
  </cc:Work>
</rdf:RDF>
</metadata>
  <g
     id="g885"
     transform="matrix(0.84628424,0,0,0.84628424,7.3572971,0.84710124)">
    <path
       id="rect837"
       style="opacity:0.999;fill:#fafafa;fill-opacity:1;stroke-width:1.03769;stroke-miterlimit:10;paint-order:stroke fill markers"
       d="M 37.647867,35.541243 50.502132,30.952689 V 43.740221 L 37.647867,39.151667 Z"
       sodipodi:nodetypes="ccccc" />
    <g
       id="g878"
       transform="translate(-2.4777809,-0.5172794)">
      <circle
         style="opacity:0.999;fill:#ef5350;fill-opacity:1;stroke-width:0.734119;stroke-miterlimit:10;paint-order:stroke fill markers"
         id="path864"
         cx="34.021343"
         cy="19.471323"
         r="9.375" />
      <circle
         style="opacity:0.999;fill:#ef5350;fill-opacity:1;stroke-width:0.587295;stroke-miterlimit:10;paint-order:stroke fill markers"
         id="circle866"
         cx="18.646343"
         cy="19.471323"
         r="7.5" />
    </g>
    <path
       id="rect835"
       style="opacity:0.999;fill:#fafafa;fill-opacity:1;stroke-width:0.839055;stroke-miterlimit:10;paint-order:stroke fill markers"
       d="m 9.221541,26.373311 c -1.6789966,0 -3.0307613,1.351765 -3.0307613,3.030762 v 15.884765 c -1e-7,1.678996 1.3517647,3.030762 3.0307613,3.030762 h 31.144042 c 1.678998,0 3.030762,-1.351766 3.030762,-3.030762 V 29.404073 c 0,-1.678997 -1.351764,-3.030762 -3.030762,-3.030762 z m 22.278808,2.403809 c 0.542534,0.03062 1.100063,0.208436 1.855957,0.599121 0.918033,0.471754 1.221837,0.800448 1.845703,2.022949 0.629009,1.227392 0.95486,2.201963 1.472168,4.423828 0.750747,3.220974 0.897833,5.270204 0.558106,7.902832 -0.132027,1.034624 -0.355171,1.557916 -0.821777,1.913086 -0.289031,0.223134 -0.559346,0.292725 -1.07666,0.282714 -0.517308,-0.0052 -1.02351,-0.156813 -1.672852,-0.506835 -0.862446,-0.466614 -1.318788,-0.811032 -2.53125,-1.932129 -0.405872,-0.375505 -0.888322,-0.781317 -1.070801,-0.908203 -0.852407,-0.573415 -2.566089,-0.84668 -5.274902,-0.84668 -2.708806,0 -4.424217,0.273522 -5.276367,0.84668 -0.18273,0.126886 -0.664929,0.532698 -1.070801,0.908203 -1.212468,1.121097 -1.668811,1.465515 -2.53125,1.932129 -0.649343,0.350022 -1.155537,0.501936 -1.672851,0.506835 -0.517308,0.01004 -0.786171,-0.05958 -1.075196,-0.282714 -0.507276,-0.385543 -0.705538,-0.893868 -0.862792,-2.217774 -0.126621,-1.070138 -0.151962,-3.129289 -0.04541,-4.057616 0.187621,-1.69941 0.786396,-4.453134 1.303711,-6.020508 0.522462,-1.577414 1.307701,-3.033437 1.88086,-3.484863 0.476646,-0.38039 1.390681,-0.817442 2.121093,-1.025391 0.375248,-0.101404 1.182003,-0.06515 1.583496,0.07177 0.446279,0.157254 0.77503,0.313378 1.333007,0.643066 1.014552,0.593749 1.689912,0.706055 4.3125,0.706055 2.673042,0 3.275868,-0.101625 4.401856,-0.755859 1.004513,-0.583454 1.584041,-0.766253 2.314453,-0.720704 z m 0.398437,2.122558 c -0.08561,0.0031 -0.166838,0.02574 -0.288573,0.06885 -0.568005,0.202808 -0.861247,0.912332 -0.587403,1.439942 0.365203,0.715224 1.329293,0.782429 1.795899,0.123047 0.400725,-0.573158 0.08134,-1.411056 -0.603516,-1.583497 -0.139625,-0.03551 -0.230799,-0.05152 -0.316407,-0.04834 z m -14.277831,0.678223 c -0.283428,0.03298 -0.558247,0.133984 -0.776367,0.298828 -0.771081,0.588607 -0.847455,1.729205 -0.162598,2.414063 0.375505,0.380388 0.846594,0.527847 1.394532,0.446777 0.553086,-0.08622 1.036235,-0.472172 1.229003,-0.994629 0.152109,-0.395576 0.121704,-0.937748 -0.06592,-1.308106 -0.157253,-0.30421 -0.472831,-0.603538 -0.79248,-0.745605 -0.251064,-0.109122 -0.542744,-0.144303 -0.826173,-0.111328 z m 16.413574,1.278808 c -0.615136,-0.07248 -1.186523,0.384931 -1.186523,1.028321 0,0.476901 0.334656,0.903438 0.801269,1.015137 0.831816,0.197916 1.537299,-0.664689 1.182129,-1.445802 -0.09111,-0.212847 -0.344117,-0.462162 -0.531739,-0.533202 -0.08815,-0.03298 -0.177259,-0.0541 -0.265136,-0.06446 z m -4.152832,0.0029 c -0.210528,0.02728 -0.409375,0.120711 -0.574219,0.27539 -0.223137,0.213103 -0.314942,0.431099 -0.314942,0.745606 0,0.319655 0.06673,0.496635 0.269532,0.70459 0.233175,0.243466 0.42595,0.330549 0.745605,0.335449 0.350022,0.0052 0.628686,-0.131882 0.84668,-0.416016 0.375242,-0.492089 0.213202,-1.253988 -0.32959,-1.527831 -0.2104,-0.106549 -0.432538,-0.144469 -0.643066,-0.117188 z m 2.099121,1.939453 c -0.180705,-0.0057 -0.359358,0.02164 -0.476074,0.08496 -0.410763,0.213103 -0.614889,0.584391 -0.574219,1.056152 0.02033,0.213097 0.06212,0.324466 0.178711,0.47168 0.431348,0.532758 1.064861,0.607841 1.536621,0.18164 0.532496,-0.482055 0.441723,-1.328688 -0.177246,-1.67871 -0.124312,-0.07105 -0.307088,-0.109994 -0.487793,-0.115723 z m -10.45459,1.31836 c -0.59374,0 -0.597656,0.0056 -0.597656,0.74121 v 0.578613 h -0.578613 c -0.735808,0 -0.741211,0.0049 -0.741211,0.603516 0,0.273838 0.02085,0.460307 0.06152,0.500976 0.04041,0.04067 0.263604,0.06152 0.659179,0.06152 h 0.599121 V 39.2068 c 0,0.745604 0.01464,0.766114 0.618164,0.766114 0.57318,0 0.599121,-0.03587 0.599121,-0.786621 v -0.583008 h 0.607911 c 0.720093,0 0.710449,0.01031 0.710449,-0.603516 0,-0.553109 -0.01009,-0.563965 -0.735352,-0.563965 H 22.15611 l -0.0205,-0.60791 c -0.01029,-0.476645 -0.03128,-0.623639 -0.09228,-0.65918 -0.04066,-0.02546 -0.273876,-0.05151 -0.517091,-0.05127 z m 6.240235,0.329589 c -0.480322,-0.06136 -0.961012,0.10208 -1.330079,0.467286 -0.649341,0.639046 -0.613833,1.698669 0.07617,2.317382 0.791409,0.710083 2.039693,0.456793 2.516601,-0.51709 0.284133,-0.583197 0.151671,-1.338786 -0.314941,-1.810546 -0.106553,-0.106545 -0.319574,-0.249771 -0.471681,-0.320802 -0.155964,-0.07103 -0.315966,-0.115776 -0.476073,-0.13623 z" />
  </g>
</svg>
