<?xml version="1.0" encoding="UTF-8" standalone="no"?>
<svg
   xmlns:dc="http://purl.org/dc/elements/1.1/"
   xmlns:cc="http://creativecommons.org/ns#"
   xmlns:rdf="http://www.w3.org/1999/02/22-rdf-syntax-ns#"
   xmlns:svg="http://www.w3.org/2000/svg"
   xmlns="http://www.w3.org/2000/svg"
   id="svg2"
   xml:space="preserve"
   enable-background="new 0 0 100 100"
   viewBox="0 0 100 100"
   height="75px"
   width="75px"
   y="0px"
   x="0px"
   version="1.1"><metadata
     id="metadata16"><rdf:RDF><cc:Work
         rdf:about=""><dc:format>image/svg+xml</dc:format><dc:type
           rdf:resource="http://purl.org/dc/dcmitype/StillImage" /><dc:title></dc:title></cc:Work></rdf:RDF></metadata><defs
     id="defs14" /><path
     id="path6"
     d="M27.706,14.613c-8.487,3.439-15.827,23.625,7.111,27.069c22.938,3.44,29.361,25.461,29.361,25.461 S46.516,49.481,24.262,51.545C2.012,53.609,11.879,14.841,27.706,14.613z"
     fill="#FAFAFA" /><path
     id="path8"
     d="M63.084,45.847c-3.506,4.421-2.76,10.841,1.658,14.342c4.422,3.502,10.841,2.756,14.343-1.661 c3.502-4.418,2.756-10.841-1.662-14.339C73.005,40.684,66.582,41.43,63.084,45.847z"
     fill="#EF5350" /><path
     id="path10"
     d="M86.15,45.544c4.518,7.969-2.263,28.35-22.382,16.796c-20.12-11.546-38.827,1.724-38.827,1.724 S49.757,61.188,65.91,76.63C82.072,92.066,98.417,55.553,86.15,45.544z"
     fill="#EF5350" /><path
     style="fill:#fafafa"
     d="m 35.38764,18.968445 c -5.635805,0 -10.206307,4.570768 -10.206307,10.210579 0,5.635811 4.570502,10.206309 10.206307,10.206309 2.599712,0 4.969924,-0.97189 6.771233,-2.570436 -0.899182,-0.432774 -4.02815,-2.107555 -6.555598,-5.5828 0,0 5.696275,1.825426 9.589312,0.779246 0.259395,-0.899761 0.402079,-1.849119 0.402079,-2.832319 0,-5.639811 -4.56721,-10.210579 -10.207026,-10.210579 z"
     id="path4164-6" /></svg>