<?xml version="1.0" encoding="utf-8"?>
<svg xmlns="http://www.w3.org/2000/svg" version="1.1" width="300" height="300" viewBox="0 0 24 24">
    <title>Glyphe 2</title>

    <path d="M12 20.016q3.281 0 5.648-2.367t2.367-5.648-2.367-5.648-5.648-2.367-5.648 2.367-2.367 5.648 2.367 5.648 5.648 2.367zM12 2.016q4.125 0 7.055 2.93t2.93 7.055-2.93 7.055-7.055 2.93-7.055-2.93-2.93-7.055 2.93-7.055 7.055-2.93z"></path>
    <path transform="scale(0.75), translate(4,4), rotate(45, 12, 12)" d="M12 18.984q2.906 0 4.945-2.039t2.039-4.945-2.039-4.945-4.945-2.039-4.945 2.039-2.039 4.945 2.039 4.945 4.945 2.039zM20.953 11.016h2.063v1.969h-2.063q-0.328 3.141-2.578 5.391t-5.391 2.578v2.063h-1.969v-2.063q-3.141-0.328-5.391-2.578t-2.578-5.391h-2.063v-1.969h2.063q0.328-3.141 2.578-5.391t5.391-2.578v-2.063h1.969v2.063q3.141 0.328 5.391 2.578t2.578 5.391zM12 8.016q1.641 0 2.813 1.172t1.172 2.813-1.172 2.813-2.813 1.172-2.813-1.172-1.172-2.813 1.172-2.813 2.813-1.172z"></path>
</svg>