<?xml version="1.0" encoding="utf-8"?>
<svg xmlns="http://www.w3.org/2000/svg" version="1.1" width="300" height="300" viewBox="0 0 24 24">
    <title>Glyphe 3</title>

    <path d="M12 20.016q3.281 0 5.648-2.367t2.367-5.648-2.367-5.648-5.648-2.367-5.648 2.367-2.367 5.648 2.367 5.648 5.648 2.367zM12 2.016q4.125 0 7.055 2.93t2.93 7.055-2.93 7.055-7.055 2.93-7.055-2.93-2.93-7.055 2.93-7.055 7.055-2.93z"></path>
    <path transform="scale(0.6), translate(8,8)" d="M5.672 19.734l1.406-1.406q1.734 1.313 3.938 1.594v2.016q-2.953-0.281-5.344-2.203zM12.984 19.922q2.203-0.281 3.891-1.594l1.453 1.406q-2.391 1.922-5.344 2.203v-2.016zM18.328 16.922q1.313-1.781 1.594-3.891h2.016q-0.281 2.906-2.203 5.297zM15 12q0 1.219-0.891 2.109t-2.109 0.891-2.109-0.891-0.891-2.109 0.891-2.109 2.109-0.891 2.109 0.891 0.891 2.109zM4.078 12.984q0.281 2.203 1.594 3.891l-1.406 1.453q-1.922-2.391-2.203-5.344h2.016zM5.672 7.078q-1.313 1.734-1.594 3.938h-2.016q0.281-2.953 2.203-5.344zM19.922 11.016q-0.281-2.203-1.594-3.938l1.406-1.406q1.922 2.391 2.203 5.344h-2.016zM18.328 4.266l-1.406 1.406q-1.734-1.313-3.938-1.594v-2.016q2.953 0.281 5.344 2.203zM11.016 4.078q-2.203 0.281-3.938 1.594l-1.406-1.406q2.391-1.922 5.344-2.203v2.016z"></path>
</svg>